<svg xmlns="http://www.w3.org/2000/svg" viewBox="0 0 292.48 78.33"><title>logo</title><g id="Layer_2" data-name="Layer 2"><g id="Layer_1-2" data-name="Layer 1"><text transform="translate(109.02 67.91)" style="font-size:38.582359313964844px;fill:#227cff;font-family:Montserrat-Black, Montserrat Black;font-weight:800"><tspan style="letter-spacing:-0.009985234524280576em">C</tspan><tspan x="28.32" y="0">ALL</tspan></text><text transform="translate(108.68 37.86)" style="font-size:38.582359313964844px;fill:#ff1f64;font-family:Montserrat-Black, Montserrat Black;font-weight:800"><tspan style="letter-spacing:-0.009985234524280576em">C</tspan><tspan x="28.32" y="0">A</tspan><tspan x="59.42" y="0" style="letter-spacing:-0.00999789008134557em">S</tspan><tspan x="84.38" y="0">TING</tspan></text><path d="M62.78,23l-2-3.23c-2.57-4.07-4.8-7.44-5.17-7.44-.93,0-18-3.88-19.89-3.36s-20.26,7.76-21,8.54S9.67,33,8.62,36.85c-.13.46-.21.76-.23.87a8,8,0,0,0,.4,2.45h0c.38,1.46.9,3,.9,3l.3.13,1.13.47a13.51,13.51,0,0,0,2.27,2.32c.68.61,1.51,1.31,2.48,2,.12.1.25.19.39.29.8.6,1.69,1.22,2.66,1.84l.49.31A44.5,44.5,0,0,0,23.84,53c.87.42,1.79.82,2.74,1.18a36.56,36.56,0,0,0,4.94,1.56c.4.1.8.19,1.21.26.58.13,1.17.23,1.76.32a31.22,31.22,0,0,0,3.54.34h.23a32.57,32.57,0,0,0,3.27,0l.38,0A32.64,32.64,0,0,0,46.28,56c.36-.07.72-.16,1.09-.25l.33-.08h0l.85-.23h0c1.08-.32,2.18-.69,3.28-1.13.23-.08.46-.18.68-.28.79-.32,1.59-.69,2.39-1.09a40.77,40.77,0,0,0,4.17-2.4c.94-.61,1.88-1.27,2.83-2l.62-.48.47-.37c.58-.47,1.16-1,1.74-1.46s1.27-1.12,1.9-1.72l.84-.81,1.13-6,.07-.37.09-.46,0-.14.54-2.87S66.12,28.42,62.78,23ZM46.67,54.4c-.76.05-1.47.11-2.12.17-1.08.1-2,.21-2.66.3l-.33,0a5.42,5.42,0,0,1,.07-.89c.33-2,1.71-3.48,3.09-3.28S46.86,52.53,46.67,54.4Z" style="fill:#227cff"/><path d="M66.65,44.49,66.26,43c-.61-.43-1.21-.84-1.81-1.23L64,41.54c-23.85-15.21-45.54-3.74-51.38.19-.53.35-.93.64-1.2.86a1.76,1.76,0,0,0-.41.37L10,43.29l-.34.1s-1.46,3.09-1.28,3.82,5.46,13.65,6.19,14.2,18.75,5.64,20.57,6,18.57-2.36,19.48-2.36S68.08,49.94,68.08,49.94ZM41.63,54c.33-2,1.71-3.48,3.09-3.28s2.14,1.79,2,3.66c-.76.05-1.47.11-2.12.17-1.08.1-2,.21-2.66.3l-.33,0A5.42,5.42,0,0,1,41.63,54Z" style="fill:#fff"/><ellipse cx="46.38" cy="18.61" rx="3.68" ry="2.52" transform="translate(20.09 61.11) rotate(-80.13)" style="fill:#fff"/><ellipse cx="53.42" cy="19.69" rx="3.68" ry="2.52" transform="translate(24.87 68.94) rotate(-80.13)" style="fill:#fff"/><ellipse cx="59.96" cy="23.1" rx="3.74" ry="2.49" transform="translate(4.86 56.15) rotate(-52.02)" style="fill:#fff"/><ellipse cx="61.79" cy="45.36" rx="2.49" ry="3.74" transform="translate(-14.86 45.49) rotate(-36.38)" style="fill:#227cff"/><ellipse cx="57.48" cy="52.75" rx="2.52" ry="3.7" transform="translate(-14.06 21.63) rotate(-19.03)" style="fill:#227cff"/><ellipse cx="50.18" cy="55.06" rx="2.53" ry="3.68" transform="translate(-6.09 6.24) rotate(-6.71)" style="fill:#227cff"/><path d="M46.67,54.4c-.76.05-1.47.11-2.12.17-1.08.1-2,.21-2.66.3l-.33,0a5.42,5.42,0,0,1,.07-.89c.33-2,1.71-3.48,3.09-3.28S46.86,52.53,46.67,54.4Z" style="fill:#227cff"/><path d="M46.67,54.4a2.21,2.21,0,0,1,0,.35,3.12,3.12,0,0,1-.09.44c0,.11,0,.21-.08.31s-.11.31-.18.46a3.74,3.74,0,0,1-1.4,1.75h0l0,0a2,2,0,0,1-1.3.29,1.89,1.89,0,0,1-1.07-.56,2.68,2.68,0,0,1-.57-.87,3.12,3.12,0,0,1-.22-.63,4,4,0,0,1-.11-.71c0-.11,0-.23,0-.34l.33,0c.68-.09,1.58-.2,2.66-.3C45.2,54.51,45.91,54.45,46.67,54.4Z" style="fill:#227cff"/><ellipse cx="35.31" cy="18.93" rx="2.65" ry="4.06" transform="translate(-2.43 5.47) rotate(-8.57)" style="fill:#fff"/><ellipse cx="27.91" cy="20.09" rx="2.65" ry="4.06" transform="translate(-2.68 4.38) rotate(-8.57)" style="fill:#fff"/><ellipse cx="21.05" cy="23.84" rx="2.65" ry="4.06" transform="translate(-9.79 16.06) rotate(-34.4)" style="fill:#fff"/><ellipse cx="16.52" cy="44.88" rx="4.06" ry="2.65" transform="translate(-30.1 34.18) rotate(-56.86)" style="fill:#227cff"/><ellipse cx="22.14" cy="50.5" rx="4.06" ry="2.65" transform="translate(-32.63 56.93) rotate(-73.02)" style="fill:#227cff"/><ellipse cx="28.85" cy="55.97" rx="4.06" ry="2.65" transform="translate(-29.83 78.8) rotate(-83.99)" style="fill:#227cff"/><ellipse cx="35.35" cy="55.62" rx="2.65" ry="4.06" transform="translate(-7.89 5.89) rotate(-8.57)" style="fill:#227cff"/><path d="M68.08,73.74C56.35,76.25,57.36,70,40.22,69.84S24.65,72,19,72.39s-14-7-17-15.11C-.49,50.84,1.53,46,2.71,39.59a3,3,0,0,1,.34-1,3.17,3.17,0,0,1-.64-1.3C1,31-1.27,26.23.91,19.69,3.64,11.5,11.65,3.67,17.3,3.85S21.48,6.4,38.59,5.49,54.43-1.61,66.26.4s6.92,22.75,5.46,30.39a27.67,27.67,0,0,1-1.33,4.93,2.59,2.59,0,0,1-1,1.22,3.19,3.19,0,0,0-.61-.23,2.81,2.81,0,0,0-2.23.42l0,0a2.59,2.59,0,0,1-.9-.73c-2.42-3-3.34-7.73-4.08-11.39-.22-1.07-.41-2-.63-2.87a3.29,3.29,0,0,0-1.43-1.92,3.15,3.15,0,0,0-2.24-.42l-1.35.23c-1.71.26-3.42.41-5.05.51-.88,0-1.74.07-2.56.08-1.56,0-3,0-4.25-.06-2.26-.09-3.88-.26-4.39-.32l-.32-.06c-.46-.1-.92-.2-1.36-.28a41.78,41.78,0,0,0-5.31-.71c-.79-.05-1.54-.07-2.25-.05a17.62,17.62,0,0,0-5.19.78,11.68,11.68,0,0,0-2.91,1.36,12.49,12.49,0,0,0-3.64,3.79,28.36,28.36,0,0,0-1.94,3.7c-1.43,3.14-5.05,6.74-8.18,9.44,1.33,1.05,2.76,2.23,4.09,3.5.58.54,1.14,1.09,1.67,1.65A19,19,0,0,1,17.4,47.5l.1.2c.44.86.9,1.72,1.42,2.55.14.23.29.45.44.67a12.93,12.93,0,0,0,3.12,3.28A11.21,11.21,0,0,0,26.19,56a17.55,17.55,0,0,0,5.26.58c.44,0,.89,0,1.37-.07s1.09-.1,1.67-.17c1.1-.15,2.28-.35,3.54-.63.74-.16,1.52-.35,2.32-.56l.32-.07.89-.13.33,0c.68-.09,1.58-.2,2.66-.3.65-.06,1.36-.12,2.12-.17l1,0c1.3-.07,2.72-.11,4.21-.08h.75c.94,0,1.9.06,2.87.14s1.87.17,2.8.3a3.08,3.08,0,0,0,1.78-.28,3.18,3.18,0,0,0,1.78-2.22c.22-1,.4-2.23.61-3.56,0-.2.06-.41.1-.62.24-1.47.51-3,.91-4.56.17-.66.37-1.31.59-1.94a14.09,14.09,0,0,1,1.88-3.76,2.89,2.89,0,0,1,.63-.63l.15.07a2,2,0,0,0,.34.12,2.66,2.66,0,0,0,1.65,0,2.43,2.43,0,0,0,.72-.36,0,0,0,0,1,0,0l0,0a2.19,2.19,0,0,1,.41.26,2.71,2.71,0,0,1,.82,1.05,28.19,28.19,0,0,1,1.54,4.86C74,50.71,79.82,71.23,68.08,73.74Z" style="fill:#ff1f64"/><path d="M69.42,36.94a2.75,2.75,0,0,1-2.87.21A2.78,2.78,0,0,1,69.42,36.94Z" style="fill:#ff1f64"/><path d="M69.42,36.94a2.75,2.75,0,0,1-2.87.21A2.78,2.78,0,0,1,69.42,36.94Z" style="fill:#ff1f64"/><path d="M81.12,30.85A41.52,41.52,0,0,0,91.36,16.46a1.54,1.54,0,0,0-.54-2.05,1.51,1.51,0,0,0-2,.53A39.49,39.49,0,0,1,79,28.72c-1.43,1.31.7,3.42,2.12,2.13Z" style="fill:#227cff"/><path d="M82.54,39.47c4.82-1.6,9.57.93,13.71,3.17,1.7.92,3.22-1.67,1.52-2.59-4.86-2.62-10.41-5.34-16-3.48-1.82.61-1,3.51.8,2.9Z" style="fill:#227cff"/><path d="M81.55,46.45A21.4,21.4,0,0,1,83.7,57.64a1.51,1.51,0,0,0,1.5,1.5,1.53,1.53,0,0,0,1.5-1.5,24.33,24.33,0,0,0-2.56-12.71,1.52,1.52,0,0,0-2-.54,1.54,1.54,0,0,0-.54,2.06Z" style="fill:#227cff"/><path d="M47.17,59.85a1.5,1.5,0,0,1-2.56,1.06,1.48,1.48,0,0,1-.42-.95.43.43,0,0,0,0-.11,2.7,2.7,0,0,0-.14-.56,0,0,0,0,0,0,0,2.15,2.15,0,0,0-.14-.26l-.08-.13h0a.07.07,0,0,0,0,0,.18.18,0,0,0,0-.07l0,0a3.66,3.66,0,0,0-.4-.39l0,0h0L43,58.16l-.3-.16,0,0-.17,0a6,6,0,0,0-1-.24,8.85,8.85,0,0,0-1,0,1.26,1.26,0,0,1-.39,0A1.66,1.66,0,0,1,39,56.2h0a1.37,1.37,0,0,1,.21-.74,1.24,1.24,0,0,1,.23-.32.21.21,0,0,1,.08-.06c.68-.09,1.58-.2,2.66-.3a6.58,6.58,0,0,1,2,.62,4.76,4.76,0,0,1,.49.28l.11.07.23.17a2.72,2.72,0,0,1,.42.34,5,5,0,0,1,1,1.18A4.77,4.77,0,0,1,47,58.59,6.65,6.65,0,0,1,47.17,59.85Z" style="fill:#fff"/></g></g></svg>